<svg width="131" height="40" viewBox="0 0 131 40" fill="none" xmlns="http://www.w3.org/2000/svg">
<mask id="mask0_83_24" style="mask-type:luminance" maskUnits="userSpaceOnUse" x="0" y="0" width="131" height="40">
<path d="M131 0H0V39.015H131V0Z" fill="white"/>
</mask>
<g mask="url(#mask0_83_24)">
<path d="M5.11325 28.3895H0V16.1809C0 9.36143 5.57396 4.10889 12.2997 4.10889H15.6076V8.90072H12.2997C11.348 8.90064 10.4058 9.08958 9.52772 9.45658C8.64966 9.82357 7.85323 10.3614 7.18467 11.0386C6.51611 11.7159 5.98873 12.5192 5.63314 13.402C5.27755 14.2847 5.10084 15.2293 5.11325 16.1809V28.3895Z" fill="#231F20"/>
<path d="M26.6994 28.3895C23.5063 28.364 20.4533 27.0748 18.2084 24.8038C15.9636 22.5329 14.7097 19.4652 14.7211 16.272C14.7211 9.50071 20.346 4.10889 26.9753 4.10889C31.8609 4.10889 36.5589 7.16506 38.4018 11.7185C34.9465 16.8345 32.9189 19.7808 32.3216 20.6111C31.7216 21.487 31.2502 22.1781 30.8912 22.7298C30.6635 23.0012 30.4634 23.2946 30.2939 23.6057L30.2002 23.7423H41.7633V28.3975L26.6994 28.3895ZM19.6978 16.272C19.6978 19.1755 21.4013 22.0308 24.12 23.1825H24.2111L32.4126 11.2498L32.1823 11.0194C31.5157 10.3093 30.7083 9.74597 29.8118 9.36553C28.9152 8.98504 27.9491 8.79572 26.9753 8.80965C22.8397 8.80965 19.6978 12.1712 19.6978 16.272Z" fill="#231F20"/>
<path d="M54.5745 28.3895H49.6059L37.9973 4.10889H43.3409L52.2791 22.7673" fill="#231F20"/>
<path d="M73.5971 28.3895C70.4038 28.3647 67.3504 27.0757 65.1054 24.8046C62.8604 22.5335 61.6067 19.4654 61.6189 16.272C61.6189 9.50071 67.2437 4.10889 73.873 4.10889C78.7559 4.10889 83.454 7.16506 85.2968 11.7185C81.8415 16.8345 79.8166 19.7808 79.2166 20.6111C78.6166 21.487 78.1452 22.1781 77.789 22.7298C77.5599 23.0008 77.3589 23.2943 77.189 23.6057L77.0979 23.7423H88.661V28.3975L73.5971 28.3895ZM66.5928 16.272C66.5928 19.1755 68.299 22.0308 71.015 23.1825H71.1088L79.3077 11.2498L79.0773 11.0194C78.4112 10.3094 77.6044 9.74607 76.7082 9.36561C75.8121 8.98512 74.8465 8.79576 73.873 8.80965C69.7267 8.80965 66.5928 12.1712 66.5928 16.272Z" fill="#231F20"/>
<path d="M113.025 28.3895H108.284V25.8074C105.75 27.6502 103.401 28.3895 100.784 28.3895C94.0581 28.3895 88.4841 23.0325 88.4841 16.272C88.4841 9.51137 94.0581 4.10889 100.784 4.10889C107.51 4.10889 113.025 9.54627 113.025 16.272V28.3895ZM100.768 8.90072C96.7152 8.90072 93.5813 12.2542 93.5813 16.272C93.5693 17.2235 93.7462 18.1679 94.1019 19.0505C94.4577 19.9331 94.9851 20.7362 95.6535 21.4135C96.322 22.0907 97.1183 22.6284 97.9962 22.9955C98.8741 23.3627 99.8162 23.5519 100.768 23.5521C104.785 23.5521 107.909 20.2335 107.909 16.272C107.909 12.3105 104.823 8.90072 100.768 8.90072Z" fill="#231F20"/>
<path d="M131 28.3895H128.466C121.692 28.3895 116.164 23.137 116.164 16.3175V4.10889H121.232V16.3175C121.233 18.2396 121.994 20.0832 123.348 21.4469C124.703 22.8105 126.542 23.5835 128.464 23.5977H130.997L131 28.3895Z" fill="#231F20"/>
<path d="M49.9728 27.618C50.2112 28.0921 50.4924 28.4216 51.012 28.4216C52.3513 28.4028 52.6834 28.3412 54.0253 28.3975C54.7432 28.4269 55.0271 28.3439 55.3646 27.8484C60.1671 20.362 55.528 15.4335 59.2431 8.06763" fill="#231F20"/>
<path d="M68.3287 6.7498L68.3099 6.50338L67.8626 0.699077C67.8626 0.699077 66.2314 -0.691068 63.4511 0.449972C63.4511 0.449972 60.9226 1.06871 58.5093 9.70957C58.5093 9.70957 64.0886 5.49627 68.3287 6.7498Z" fill="url(#paint0_linear_83_24)"/>
<path d="M0.0535889 34.282H0.562504V36.2561H3.28654V34.282H3.79545V38.8355H3.28654V36.6927H0.562504V38.8355H0.0535889V34.282Z" fill="#231F20"/>
<path d="M15.1924 38.4097H17.8709V38.8329H14.6835V34.2795H17.7879V34.7054H15.1924V36.2535H17.603V36.6767H15.1924V38.4097Z" fill="#231F20"/>
<path d="M28.317 38.8329H27.7224L29.9 34.2795H30.3956L32.5732 38.8329H31.9785L31.4268 37.6383H28.8688L28.317 38.8329ZM29.059 37.2258H31.2286L30.1572 34.8339L29.059 37.2258Z" fill="#231F20"/>
<path d="M43.2872 38.4097H45.6202V38.8329H42.7783V34.2795H43.2872V38.4097Z" fill="#231F20"/>
<path d="M56.7922 38.8328H56.2833V34.7079H54.6066V34.282H58.4636V34.7079H56.7869L56.7922 38.8328Z" fill="#231F20"/>
<path d="M68.7705 34.282H69.2794V36.2561H72.0088V34.282H72.5177V38.8355H72.0088V36.6927H69.2794V38.8355H68.7705V34.282Z" fill="#231F20"/>
<path d="M86.7834 38.8998H85.5486V35.2356H84.1183V34.2178H88.2137V35.2383H86.7834V38.8998Z" fill="#231F20"/>
<path d="M101.869 38.8998H98.2045V34.2178H101.74V35.2892H99.4446V36.0044H101.614V37.0624H99.4446V37.8659H101.871L101.869 38.8998Z" fill="#231F20"/>
<path d="M114.642 39.0177C114.268 39.0206 113.895 38.9627 113.539 38.8463C113.216 38.7418 112.918 38.5743 112.66 38.3534C112.413 38.1403 112.215 37.875 112.082 37.5767C111.944 37.255 111.873 36.9088 111.873 36.5589C111.873 36.2089 111.944 35.8627 112.082 35.541C112.216 35.2423 112.413 34.9763 112.66 34.7616C112.918 34.5426 113.217 34.3761 113.539 34.2714C113.895 34.155 114.268 34.0971 114.642 34.1C114.794 34.101 114.945 34.1136 115.095 34.1375C115.253 34.1616 115.408 34.2002 115.558 34.2527C115.714 34.3056 115.862 34.3766 116 34.4643C116.142 34.5544 116.27 34.6645 116.381 34.791L116.429 34.8473L115.475 35.5571L115.433 35.5142C115.33 35.3971 115.202 35.3054 115.058 35.2464C114.887 35.1805 114.705 35.1496 114.522 35.1553C114.333 35.1535 114.145 35.189 113.97 35.2598C113.807 35.3258 113.658 35.4242 113.534 35.5491C113.408 35.6765 113.31 35.8277 113.244 35.9937C113.105 36.3548 113.105 36.7549 113.244 37.116C113.311 37.2803 113.408 37.4303 113.531 37.5579C113.652 37.6817 113.797 37.78 113.957 37.8472C114.126 37.9184 114.309 37.954 114.492 37.9517C114.689 37.9557 114.884 37.9145 115.063 37.8311C115.225 37.7529 115.364 37.6361 115.47 37.491L115.508 37.4374L116.541 38.1392L116.496 38.1954C116.28 38.4735 115.992 38.6874 115.663 38.8141C115.339 38.9455 114.992 39.0146 114.642 39.0177Z" fill="#231F20"/>
<path d="M130.995 38.8998H129.757V36.9338H127.748V38.8998H126.511V34.2178H127.748V35.916H129.757V34.2178H130.995V38.8998Z" fill="#231F20"/>
</g>
<defs>
<linearGradient id="paint0_linear_83_24" x1="68.3287" y1="4.85611" x2="58.5093" y2="4.85611" gradientUnits="userSpaceOnUse">
<stop stop-color="#CA4E9C"/>
<stop offset="0.05" stop-color="#CB4C98"/>
<stop offset="0.11" stop-color="#CF478C"/>
<stop offset="0.16" stop-color="#D43F79"/>
<stop offset="0.21" stop-color="#DC345D"/>
<stop offset="0.26" stop-color="#E7253A"/>
<stop offset="0.29" stop-color="#ED1C24"/>
<stop offset="0.34" stop-color="#F0411E"/>
<stop offset="0.45" stop-color="#F68412"/>
<stop offset="0.53" stop-color="#FAB509"/>
<stop offset="0.6" stop-color="#FCD304"/>
<stop offset="0.64" stop-color="#FDDE02"/>
<stop offset="0.66" stop-color="#F1DB11"/>
<stop offset="0.72" stop-color="#D2D43A"/>
<stop offset="0.79" stop-color="#9FC97B"/>
<stop offset="0.88" stop-color="#5AB9D5"/>
<stop offset="0.9" stop-color="#4BB6E8"/>
</linearGradient>
</defs>
</svg>
